<?xml version="1.0" encoding="utf-8" standalone="no"?>
<!DOCTYPE svg PUBLIC "-//W3C//DTD SVG 1.1//EN"
  "http://www.w3.org/Graphics/SVG/1.1/DTD/svg11.dtd">
<svg xmlns:xlink="http://www.w3.org/1999/xlink" width="247.225pt" height="150.75pt" viewBox="0 0 247.225 150.75" xmlns="http://www.w3.org/2000/svg" version="1.1">
 <metadata>
  <rdf:RDF xmlns:dc="http://purl.org/dc/elements/1.1/" xmlns:cc="http://creativecommons.org/ns#" xmlns:rdf="http://www.w3.org/1999/02/22-rdf-syntax-ns#">
   <cc:Work>
    <dc:type rdf:resource="http://purl.org/dc/dcmitype/StillImage"/>
    <dc:date>2024-05-22T23:59:11.695302</dc:date>
    <dc:format>image/svg+xml</dc:format>
    <dc:creator>
     <cc:Agent>
      <dc:title>Matplotlib v3.8.1, https://matplotlib.org/</dc:title>
     </cc:Agent>
    </dc:creator>
   </cc:Work>
  </rdf:RDF>
 </metadata>
 <defs>
  <style type="text/css">*{stroke-linejoin: round; stroke-linecap: butt}</style>
 </defs>
 <g id="figure_1">
  <g id="patch_1">
   <path d="M 0 150.75 
L 247.225 150.75 
L 247.225 0 
L 0 0 
z
" style="fill: #ffffff"/>
  </g>
  <g id="axes_1">
   <g id="patch_2">
    <path d="M 64.525 45.945 
C 65.670677 45.945 66.769585 45.489818 67.579701 44.679701 
C 68.389818 43.869585 68.845 42.770677 68.845 41.625 
C 68.845 40.479323 68.389818 39.380415 67.579701 38.570299 
C 66.769585 37.760182 65.670677 37.305 64.525 37.305 
C 63.379323 37.305 62.280415 37.760182 61.470299 38.570299 
C 60.660182 39.380415 60.205 40.479323 60.205 41.625 
C 60.205 42.770677 60.660182 43.869585 61.470299 44.679701 
C 62.280415 45.489818 63.379323 45.945 64.525 45.945 
L 64.525 45.945 
z
" clip-path="url(#p21f6bc62dd)" style="fill: none; stroke: #000000; stroke-width: 2; stroke-linejoin: miter"/>
   </g>
   <g id="patch_3">
    <path d="M 64.525 72.945 
C 65.670677 72.945 66.769585 72.489818 67.579701 71.679701 
C 68.389818 70.869585 68.845 69.770677 68.845 68.625 
C 68.845 67.479323 68.389818 66.380415 67.579701 65.570299 
C 66.769585 64.760182 65.670677 64.305 64.525 64.305 
C 63.379323 64.305 62.280415 64.760182 61.470299 65.570299 
C 60.660182 66.380415 60.205 67.479323 60.205 68.625 
C 60.205 69.770677 60.660182 70.869585 61.470299 71.679701 
C 62.280415 72.489818 63.379323 72.945 64.525 72.945 
L 64.525 72.945 
z
" clip-path="url(#p21f6bc62dd)" style="fill: none; stroke: #000000; stroke-width: 2; stroke-linejoin: miter"/>
   </g>
   <g id="patch_4">
    <path d="M 64.525 126.945 
C 65.670677 126.945 66.769585 126.489818 67.579701 125.679701 
C 68.389818 124.869585 68.845 123.770677 68.845 122.625 
C 68.845 121.479323 68.389818 120.380415 67.579701 119.570299 
C 66.769585 118.760182 65.670677 118.305 64.525 118.305 
C 63.379323 118.305 62.280415 118.760182 61.470299 119.570299 
C 60.660182 120.380415 60.205 121.479323 60.205 122.625 
C 60.205 123.770677 60.660182 124.869585 61.470299 125.679701 
C 62.280415 126.489818 63.379323 126.945 64.525 126.945 
L 64.525 126.945 
z
" clip-path="url(#p21f6bc62dd)" style="fill: none; stroke: #000000; stroke-width: 2; stroke-linejoin: miter"/>
   </g>
   <g id="line2d_1">
    <path d="M 177.025 79.515 
L 196.567857 79.448878 
L 198.625 79.155 
L 200.682143 78.62602 
L 202.739286 77.861939 
L 204.796429 76.862755 
L 206.853571 75.628469 
L 208.910714 74.159082 
L 210.967857 72.454592 
L 213.539286 69.993367 
L 216.110714 67.164796 
L 218.682143 63.968878 
L 220.225 61.875 
L 220.225 61.875 
L 217.653571 58.458673 
L 215.082143 55.409694 
L 212.510714 52.728061 
L 209.939286 50.413776 
L 207.882143 48.826837 
L 205.825 47.475 
L 203.767857 46.358265 
L 201.710714 45.476633 
L 199.653571 44.830102 
L 197.596429 44.418673 
L 195.539286 44.242347 
L 195.025 44.235 
L 177.025 44.235 
L 177.025 44.235 
L 179.0122 46.395 
L 180.7402 48.555 
L 182.209 50.715 
L 183.4186 52.875 
L 184.369 55.035 
L 185.0602 57.195 
L 185.4922 59.355 
L 185.665 61.515 
L 185.5786 63.675 
L 185.233 65.835 
L 184.6282 67.995 
L 183.7642 70.155 
L 182.641 72.315 
L 181.2586 74.475 
L 179.617 76.635 
L 177.7162 78.795 
L 177.025 79.515 
L 177.025 79.515 
" clip-path="url(#p21f6bc62dd)" style="fill: none; stroke: #000000; stroke-width: 2; stroke-linecap: round"/>
   </g>
   <g id="line2d_2">
    <path d="M 164.425 70.875 
L 183.4186 70.875 
" clip-path="url(#p21f6bc62dd)" style="fill: none; stroke: #000000; stroke-width: 2; stroke-linecap: round"/>
   </g>
   <g id="line2d_3">
    <path d="M 164.425 52.875 
L 183.4186 52.875 
" clip-path="url(#p21f6bc62dd)" style="fill: none; stroke: #000000; stroke-width: 2; stroke-linecap: round"/>
   </g>
   <g id="line2d_4">
    <path d="M 220.225 61.875 
L 232.825 61.875 
" clip-path="url(#p21f6bc62dd)" style="fill: none; stroke: #000000; stroke-width: 2; stroke-linecap: round"/>
   </g>
   <g id="line2d_5">
    <path d="M 130.225 46.125 
L 131.378264 46.088017 
L 132.526789 45.97722 
L 133.665855 45.793065 
L 134.790783 45.536308 
L 135.896948 45.208003 
L 136.979806 44.809502 
L 138.034907 44.34244 
L 139.057916 43.808737 
L 140.044628 43.210586 
L 140.99099 42.550445 
L 141.893111 41.831027 
L 142.747286 41.055288 
L 143.550004 40.226416 
L 144.297967 39.347816 
L 144.988101 38.4231 
L 145.61757 37.456066 
L 146.183788 36.450689 
L 146.684427 35.4111 
L 147.117432 34.341571 
L 147.481021 33.246497 
L 147.773702 32.130377 
L 147.994272 30.997798 
L 148.141824 29.853414 
L 148.215752 28.701928 
L 148.215752 27.548072 
L 148.141824 26.396586 
L 147.994272 25.252202 
L 147.773702 24.119623 
L 147.481021 23.003503 
L 147.117432 21.908429 
L 146.684427 20.8389 
L 146.183788 19.799311 
L 145.61757 18.793934 
L 144.988101 17.8269 
L 144.297967 16.902184 
L 143.550004 16.023584 
L 142.747286 15.194712 
L 141.893111 14.418973 
L 140.99099 13.699555 
L 140.044628 13.039414 
L 139.057916 12.441263 
L 138.034907 11.90756 
L 136.979806 11.440498 
L 135.896948 11.041997 
L 134.790783 10.713692 
L 133.665855 10.456935 
L 132.526789 10.27278 
L 131.378264 10.161983 
L 130.225 10.125 
L 130.225 10.125 
L 106.825 10.125 
L 106.825 28.125 
L 106.825 46.125 
L 130.225 46.125 
" clip-path="url(#p21f6bc62dd)" style="fill: none; stroke: #000000; stroke-width: 2; stroke-linecap: round"/>
   </g>
   <g id="line2d_6">
    <path d="M 94.225 37.125 
L 106.825 37.125 
" clip-path="url(#p21f6bc62dd)" style="fill: none; stroke: #000000; stroke-width: 2; stroke-linecap: round"/>
   </g>
   <g id="line2d_7">
    <path d="M 94.225 19.125 
L 106.825 19.125 
" clip-path="url(#p21f6bc62dd)" style="fill: none; stroke: #000000; stroke-width: 2; stroke-linecap: round"/>
   </g>
   <g id="line2d_8">
    <path d="M 148.225 28.125 
L 160.825 28.125 
" clip-path="url(#p21f6bc62dd)" style="fill: none; stroke: #000000; stroke-width: 2; stroke-linecap: round"/>
   </g>
   <g id="line2d_9">
    <path d="M 16.825 41.625 
L 36.805 41.625 
M 68.845 41.625 
L 88.825 41.625 
" clip-path="url(#p21f6bc62dd)" style="fill: none; stroke: #000000; stroke-width: 2; stroke-linecap: round"/>
   </g>
   <g id="line2d_10">
    <path d="M 36.805 23.625 
L 60.205 41.625 
L 36.805 59.625 
L 36.805 23.625 
" clip-path="url(#p21f6bc62dd)" style="fill: none; stroke: #000000; stroke-width: 2; stroke-linecap: round"/>
   </g>
   <g id="line2d_11">
    <path d="M 94.225 37.125 
L 88.825 37.125 
L 88.825 41.625 
" clip-path="url(#p21f6bc62dd)" style="fill: none; stroke: #000000; stroke-width: 2; stroke-linecap: round"/>
   </g>
   <g id="line2d_12">
    <path d="M 164.425 52.875 
L 160.825 52.875 
L 160.825 28.125 
" clip-path="url(#p21f6bc62dd)" style="fill: none; stroke: #000000; stroke-width: 2; stroke-linecap: round"/>
   </g>
   <g id="line2d_13">
    <path d="M 130.225 113.625 
L 131.378264 113.588017 
L 132.526789 113.47722 
L 133.665855 113.293065 
L 134.790783 113.036308 
L 135.896948 112.708003 
L 136.979806 112.309502 
L 138.034907 111.84244 
L 139.057916 111.308737 
L 140.044628 110.710586 
L 140.99099 110.050445 
L 141.893111 109.331027 
L 142.747286 108.555288 
L 143.550004 107.726416 
L 144.297967 106.847816 
L 144.988101 105.9231 
L 145.61757 104.956066 
L 146.183788 103.950689 
L 146.684427 102.9111 
L 147.117432 101.841571 
L 147.481021 100.746497 
L 147.773702 99.630377 
L 147.994272 98.497798 
L 148.141824 97.353414 
L 148.215752 96.201928 
L 148.215752 95.048072 
L 148.141824 93.896586 
L 147.994272 92.752202 
L 147.773702 91.619623 
L 147.481021 90.503503 
L 147.117432 89.408429 
L 146.684427 88.3389 
L 146.183788 87.299311 
L 145.61757 86.293934 
L 144.988101 85.3269 
L 144.297967 84.402184 
L 143.550004 83.523584 
L 142.747286 82.694712 
L 141.893111 81.918973 
L 140.99099 81.199555 
L 140.044628 80.539414 
L 139.057916 79.941263 
L 138.034907 79.40756 
L 136.979806 78.940498 
L 135.896948 78.541997 
L 134.790783 78.213692 
L 133.665855 77.956935 
L 132.526789 77.77278 
L 131.378264 77.661983 
L 130.225 77.625 
L 130.225 77.625 
L 106.825 77.625 
L 106.825 95.625 
L 106.825 113.625 
L 130.225 113.625 
" clip-path="url(#p21f6bc62dd)" style="fill: none; stroke: #000000; stroke-width: 2; stroke-linecap: round"/>
   </g>
   <g id="line2d_14">
    <path d="M 94.225 107.505 
L 106.825 107.505 
" clip-path="url(#p21f6bc62dd)" style="fill: none; stroke: #000000; stroke-width: 2; stroke-linecap: round"/>
   </g>
   <g id="line2d_15">
    <path d="M 94.225 95.625 
L 106.825 95.625 
" clip-path="url(#p21f6bc62dd)" style="fill: none; stroke: #000000; stroke-width: 2; stroke-linecap: round"/>
   </g>
   <g id="line2d_16">
    <path d="M 94.225 83.745 
L 106.825 83.745 
" clip-path="url(#p21f6bc62dd)" style="fill: none; stroke: #000000; stroke-width: 2; stroke-linecap: round"/>
   </g>
   <g id="line2d_17">
    <path d="M 148.225 95.625 
L 160.825 95.625 
" clip-path="url(#p21f6bc62dd)" style="fill: none; stroke: #000000; stroke-width: 2; stroke-linecap: round"/>
   </g>
   <g id="line2d_18">
    <path d="M 16.825 68.625 
L 36.805 68.625 
M 68.845 68.625 
L 88.825 68.625 
" clip-path="url(#p21f6bc62dd)" style="fill: none; stroke: #000000; stroke-width: 2; stroke-linecap: round"/>
   </g>
   <g id="line2d_19">
    <path d="M 36.805 50.625 
L 60.205 68.625 
L 36.805 86.625 
L 36.805 50.625 
" clip-path="url(#p21f6bc62dd)" style="fill: none; stroke: #000000; stroke-width: 2; stroke-linecap: round"/>
   </g>
   <g id="line2d_20">
    <path d="M 94.225 83.745 
L 88.825 83.745 
L 88.825 68.625 
" clip-path="url(#p21f6bc62dd)" style="fill: none; stroke: #000000; stroke-width: 2; stroke-linecap: round"/>
   </g>
   <g id="line2d_21">
    <path d="M 16.825 122.625 
L 36.805 122.625 
M 68.845 122.625 
L 88.825 122.625 
" clip-path="url(#p21f6bc62dd)" style="fill: none; stroke: #000000; stroke-width: 2; stroke-linecap: round"/>
   </g>
   <g id="line2d_22">
    <path d="M 36.805 104.625 
L 60.205 122.625 
L 36.805 140.625 
L 36.805 104.625 
" clip-path="url(#p21f6bc62dd)" style="fill: none; stroke: #000000; stroke-width: 2; stroke-linecap: round"/>
   </g>
   <g id="line2d_23">
    <path d="M 94.225 107.505 
L 88.825 107.505 
L 88.825 122.625 
" clip-path="url(#p21f6bc62dd)" style="fill: none; stroke: #000000; stroke-width: 2; stroke-linecap: round"/>
   </g>
   <g id="line2d_24">
    <path d="M 164.425 70.875 
L 160.825 70.875 
L 160.825 95.625 
" clip-path="url(#p21f6bc62dd)" style="fill: none; stroke: #000000; stroke-width: 2; stroke-linecap: round"/>
   </g>
   <g id="text_1">
    <!-- A -->
    <g transform="translate(82.074219 22.574219) scale(0.125 -0.125)">
     <defs>
      <path id="DejaVuSans-41" d="M 2188 4044 
L 1331 1722 
L 3047 1722 
L 2188 4044 
z
M 1831 4666 
L 2547 4666 
L 4325 0 
L 3669 0 
L 3244 1197 
L 1141 1197 
L 716 0 
L 50 0 
L 1831 4666 
z
" transform="scale(0.015625)"/>
     </defs>
     <use xlink:href="#DejaVuSans-41"/>
    </g>
   </g>
   <g id="text_2">
    <!-- B -->
    <g transform="translate(4.648828 45.074219) scale(0.125 -0.125)">
     <defs>
      <path id="DejaVuSans-42" d="M 1259 2228 
L 1259 519 
L 2272 519 
Q 2781 519 3026 730 
Q 3272 941 3272 1375 
Q 3272 1813 3026 2020 
Q 2781 2228 2272 2228 
L 1259 2228 
z
M 1259 4147 
L 1259 2741 
L 2194 2741 
Q 2656 2741 2882 2914 
Q 3109 3088 3109 3444 
Q 3109 3797 2882 3972 
Q 2656 4147 2194 4147 
L 1259 4147 
z
M 628 4666 
L 2241 4666 
Q 2963 4666 3353 4366 
Q 3744 4066 3744 3513 
Q 3744 3084 3544 2831 
Q 3344 2578 2956 2516 
Q 3422 2416 3680 2098 
Q 3938 1781 3938 1306 
Q 3938 681 3513 340 
Q 3088 0 2303 0 
L 628 0 
L 628 4666 
z
" transform="scale(0.015625)"/>
     </defs>
     <use xlink:href="#DejaVuSans-42"/>
    </g>
   </g>
   <g id="text_3">
    <!-- C -->
    <g transform="translate(81.896484 99.074219) scale(0.125 -0.125)">
     <defs>
      <path id="DejaVuSans-43" d="M 4122 4306 
L 4122 3641 
Q 3803 3938 3442 4084 
Q 3081 4231 2675 4231 
Q 1875 4231 1450 3742 
Q 1025 3253 1025 2328 
Q 1025 1406 1450 917 
Q 1875 428 2675 428 
Q 3081 428 3442 575 
Q 3803 722 4122 1019 
L 4122 359 
Q 3791 134 3420 21 
Q 3050 -91 2638 -91 
Q 1578 -91 968 557 
Q 359 1206 359 2328 
Q 359 3453 968 4101 
Q 1578 4750 2638 4750 
Q 3056 4750 3426 4639 
Q 3797 4528 4122 4306 
z
" transform="scale(0.015625)"/>
     </defs>
     <use xlink:href="#DejaVuSans-43"/>
    </g>
   </g>
   <g id="text_4">
    <!-- B -->
    <g transform="translate(4.648828 72.074219) scale(0.125 -0.125)">
     <use xlink:href="#DejaVuSans-42"/>
    </g>
   </g>
   <g id="text_5">
    <!-- D -->
    <g transform="translate(3.6 126.074219) scale(0.125 -0.125)">
     <defs>
      <path id="DejaVuSans-44" d="M 1259 4147 
L 1259 519 
L 2022 519 
Q 2988 519 3436 956 
Q 3884 1394 3884 2338 
Q 3884 3275 3436 3711 
Q 2988 4147 2022 4147 
L 1259 4147 
z
M 628 4666 
L 1925 4666 
Q 3281 4666 3915 4102 
Q 4550 3538 4550 2338 
Q 4550 1131 3912 565 
Q 3275 0 1925 0 
L 628 0 
L 628 4666 
z
" transform="scale(0.015625)"/>
     </defs>
     <use xlink:href="#DejaVuSans-44"/>
    </g>
   </g>
  </g>
 </g>
 <defs>
  <clipPath id="p21f6bc62dd">
   <rect x="6.025" y="3.6" width="237.6" height="143.55"/>
  </clipPath>
 </defs>
</svg>
