<?xml version="1.0" encoding="utf-8" standalone="no"?>
<!DOCTYPE svg PUBLIC "-//W3C//DTD SVG 1.1//EN"
  "http://www.w3.org/Graphics/SVG/1.1/DTD/svg11.dtd">
<svg xmlns:xlink="http://www.w3.org/1999/xlink" width="403.2pt" height="225pt" viewBox="0 0 403.2 225" xmlns="http://www.w3.org/2000/svg" version="1.1">
 <metadata>
  <rdf:RDF xmlns:dc="http://purl.org/dc/elements/1.1/" xmlns:cc="http://creativecommons.org/ns#" xmlns:rdf="http://www.w3.org/1999/02/22-rdf-syntax-ns#">
   <cc:Work>
    <dc:type rdf:resource="http://purl.org/dc/dcmitype/StillImage"/>
    <dc:date>2024-05-22T23:59:11.598371</dc:date>
    <dc:format>image/svg+xml</dc:format>
    <dc:creator>
     <cc:Agent>
      <dc:title>Matplotlib v3.8.1, https://matplotlib.org/</dc:title>
     </cc:Agent>
    </dc:creator>
   </cc:Work>
  </rdf:RDF>
 </metadata>
 <defs>
  <style type="text/css">*{stroke-linejoin: round; stroke-linecap: butt}</style>
 </defs>
 <g id="figure_1">
  <g id="patch_1">
   <path d="M 0 225 
L 403.2 225 
L 403.2 -0 
L 0 -0 
z
" style="fill: #ffffff"/>
  </g>
  <g id="axes_1">
   <g id="patch_2">
    <path d="M 213.3 49.32 
C 214.445677 49.32 215.544585 48.864818 216.354701 48.054701 
C 217.164818 47.244585 217.62 46.145677 217.62 45 
C 217.62 43.854323 217.164818 42.755415 216.354701 41.945299 
C 215.544585 41.135182 214.445677 40.68 213.3 40.68 
C 212.154323 40.68 211.055415 41.135182 210.245299 41.945299 
C 209.435182 42.755415 208.98 43.854323 208.98 45 
C 208.98 46.145677 209.435182 47.244585 210.245299 48.054701 
C 211.055415 48.864818 212.154323 49.32 213.3 49.32 
L 213.3 49.32 
z
" clip-path="url(#p47af474a25)" style="fill: none; stroke: #000000; stroke-width: 2; stroke-linejoin: miter"/>
   </g>
   <g id="patch_3">
    <path d="M 141.3 76.32 
C 142.445677 76.32 143.544585 75.864818 144.354701 75.054701 
C 145.164818 74.244585 145.62 73.145677 145.62 72 
C 145.62 70.854323 145.164818 69.755415 144.354701 68.945299 
C 143.544585 68.135182 142.445677 67.68 141.3 67.68 
C 140.154323 67.68 139.055415 68.135182 138.245299 68.945299 
C 137.435182 69.755415 136.98 70.854323 136.98 72 
C 136.98 73.145677 137.435182 74.244585 138.245299 75.054701 
C 139.055415 75.864818 140.154323 76.32 141.3 76.32 
L 141.3 76.32 
z
" clip-path="url(#p47af474a25)" style="fill: none; stroke: #000000; stroke-width: 2; stroke-linejoin: miter"/>
   </g>
   <g id="patch_4">
    <path d="M 69.3 197.82 
C 70.445677 197.82 71.544585 197.364818 72.354701 196.554701 
C 73.164818 195.744585 73.62 194.645677 73.62 193.5 
C 73.62 192.354323 73.164818 191.255415 72.354701 190.445299 
C 71.544585 189.635182 70.445677 189.18 69.3 189.18 
C 68.154323 189.18 67.055415 189.635182 66.245299 190.445299 
C 65.435182 191.255415 64.98 192.354323 64.98 193.5 
C 64.98 194.645677 65.435182 195.744585 66.245299 196.554701 
C 67.055415 197.364818 68.154323 197.82 69.3 197.82 
L 69.3 197.82 
z
" clip-path="url(#p47af474a25)" style="fill: none; stroke: #000000; stroke-width: 2; stroke-linejoin: miter"/>
   </g>
   <g id="line2d_1">
    <path d="M 325.8 93.015 
L 345.342857 92.948878 
L 347.4 92.655 
L 349.457143 92.12602 
L 351.514286 91.361939 
L 353.571429 90.362755 
L 355.628571 89.128469 
L 357.685714 87.659082 
L 359.742857 85.954592 
L 362.314286 83.493367 
L 364.885714 80.664796 
L 367.457143 77.468878 
L 369 75.375 
L 369 75.375 
L 366.428571 71.958673 
L 363.857143 68.909694 
L 361.285714 66.228061 
L 358.714286 63.913776 
L 356.657143 62.326837 
L 354.6 60.975 
L 352.542857 59.858265 
L 350.485714 58.976633 
L 348.428571 58.330102 
L 346.371429 57.918673 
L 344.314286 57.742347 
L 343.8 57.735 
L 325.8 57.735 
L 325.8 57.735 
L 327.7872 59.895 
L 329.5152 62.055 
L 330.984 64.215 
L 332.1936 66.375 
L 333.144 68.535 
L 333.8352 70.695 
L 334.2672 72.855 
L 334.44 75.015 
L 334.3536 77.175 
L 334.008 79.335 
L 333.4032 81.495 
L 332.5392 83.655 
L 331.416 85.815 
L 330.0336 87.975 
L 328.392 90.135 
L 326.4912 92.295 
L 325.8 93.015 
L 325.8 93.015 
" clip-path="url(#p47af474a25)" style="fill: none; stroke: #000000; stroke-width: 2; stroke-linecap: round"/>
   </g>
   <g id="line2d_2">
    <path d="M 313.2 84.375 
L 332.1936 84.375 
" clip-path="url(#p47af474a25)" style="fill: none; stroke: #000000; stroke-width: 2; stroke-linecap: round"/>
   </g>
   <g id="line2d_3">
    <path d="M 313.2 66.375 
L 332.1936 66.375 
" clip-path="url(#p47af474a25)" style="fill: none; stroke: #000000; stroke-width: 2; stroke-linecap: round"/>
   </g>
   <g id="line2d_4">
    <path d="M 369 75.375 
L 381.6 75.375 
" clip-path="url(#p47af474a25)" style="fill: none; stroke: #000000; stroke-width: 2; stroke-linecap: round"/>
   </g>
   <g id="line2d_5">
    <path d="M 279 49.5 
L 280.153264 49.463017 
L 281.301789 49.35222 
L 282.440855 49.168065 
L 283.565783 48.911308 
L 284.671948 48.583003 
L 285.754806 48.184502 
L 286.809907 47.71744 
L 287.832916 47.183737 
L 288.819628 46.585586 
L 289.76599 45.925445 
L 290.668111 45.206027 
L 291.522286 44.430288 
L 292.325004 43.601416 
L 293.072967 42.722816 
L 293.763101 41.7981 
L 294.39257 40.831066 
L 294.958788 39.825689 
L 295.459427 38.7861 
L 295.892432 37.716571 
L 296.256021 36.621497 
L 296.548702 35.505377 
L 296.769272 34.372798 
L 296.916824 33.228414 
L 296.990752 32.076928 
L 296.990752 30.923072 
L 296.916824 29.771586 
L 296.769272 28.627202 
L 296.548702 27.494623 
L 296.256021 26.378503 
L 295.892432 25.283429 
L 295.459427 24.2139 
L 294.958788 23.174311 
L 294.39257 22.168934 
L 293.763101 21.2019 
L 293.072967 20.277184 
L 292.325004 19.398584 
L 291.522286 18.569712 
L 290.668111 17.793973 
L 289.76599 17.074555 
L 288.819628 16.414414 
L 287.832916 15.816263 
L 286.809907 15.28256 
L 285.754806 14.815498 
L 284.671948 14.416997 
L 283.565783 14.088692 
L 282.440855 13.831935 
L 281.301789 13.64778 
L 280.153264 13.536983 
L 279 13.5 
L 279 13.5 
L 255.6 13.5 
L 255.6 31.5 
L 255.6 49.5 
L 279 49.5 
" clip-path="url(#p47af474a25)" style="fill: none; stroke: #000000; stroke-width: 2; stroke-linecap: round"/>
   </g>
   <g id="line2d_6">
    <path d="M 243 40.5 
L 255.6 40.5 
" clip-path="url(#p47af474a25)" style="fill: none; stroke: #000000; stroke-width: 2; stroke-linecap: round"/>
   </g>
   <g id="line2d_7">
    <path d="M 243 22.5 
L 255.6 22.5 
" clip-path="url(#p47af474a25)" style="fill: none; stroke: #000000; stroke-width: 2; stroke-linecap: round"/>
   </g>
   <g id="line2d_8">
    <path d="M 297 31.5 
L 309.6 31.5 
" clip-path="url(#p47af474a25)" style="fill: none; stroke: #000000; stroke-width: 2; stroke-linecap: round"/>
   </g>
   <g id="line2d_9">
    <path d="M 165.6 45 
L 185.58 45 
M 217.62 45 
L 237.6 45 
" clip-path="url(#p47af474a25)" style="fill: none; stroke: #000000; stroke-width: 2; stroke-linecap: round"/>
   </g>
   <g id="line2d_10">
    <path d="M 185.58 27 
L 208.98 45 
L 185.58 63 
L 185.58 27 
" clip-path="url(#p47af474a25)" style="fill: none; stroke: #000000; stroke-width: 2; stroke-linecap: round"/>
   </g>
   <g id="line2d_11">
    <path d="M 243 40.5 
L 237.6 40.5 
L 237.6 45 
" clip-path="url(#p47af474a25)" style="fill: none; stroke: #000000; stroke-width: 2; stroke-linecap: round"/>
   </g>
   <g id="line2d_12">
    <path d="M 313.2 66.375 
L 309.6 66.375 
L 309.6 31.5 
" clip-path="url(#p47af474a25)" style="fill: none; stroke: #000000; stroke-width: 2; stroke-linecap: round"/>
   </g>
   <g id="line2d_13">
    <path d="M 279 137.25 
L 280.153264 137.213017 
L 281.301789 137.10222 
L 282.440855 136.918065 
L 283.565783 136.661308 
L 284.671948 136.333003 
L 285.754806 135.934502 
L 286.809907 135.46744 
L 287.832916 134.933737 
L 288.819628 134.335586 
L 289.76599 133.675445 
L 290.668111 132.956027 
L 291.522286 132.180288 
L 292.325004 131.351416 
L 293.072967 130.472816 
L 293.763101 129.5481 
L 294.39257 128.581066 
L 294.958788 127.575689 
L 295.459427 126.5361 
L 295.892432 125.466571 
L 296.256021 124.371497 
L 296.548702 123.255377 
L 296.769272 122.122798 
L 296.916824 120.978414 
L 296.990752 119.826928 
L 296.990752 118.673072 
L 296.916824 117.521586 
L 296.769272 116.377202 
L 296.548702 115.244623 
L 296.256021 114.128503 
L 295.892432 113.033429 
L 295.459427 111.9639 
L 294.958788 110.924311 
L 294.39257 109.918934 
L 293.763101 108.9519 
L 293.072967 108.027184 
L 292.325004 107.148584 
L 291.522286 106.319712 
L 290.668111 105.543973 
L 289.76599 104.824555 
L 288.819628 104.164414 
L 287.832916 103.566263 
L 286.809907 103.03256 
L 285.754806 102.565498 
L 284.671948 102.166997 
L 283.565783 101.838692 
L 282.440855 101.581935 
L 281.301789 101.39778 
L 280.153264 101.286983 
L 279 101.25 
L 279 101.25 
L 255.6 101.25 
L 255.6 119.25 
L 255.6 137.25 
L 279 137.25 
" clip-path="url(#p47af474a25)" style="fill: none; stroke: #000000; stroke-width: 2; stroke-linecap: round"/>
   </g>
   <g id="line2d_14">
    <path d="M 243 128.25 
L 255.6 128.25 
" clip-path="url(#p47af474a25)" style="fill: none; stroke: #000000; stroke-width: 2; stroke-linecap: round"/>
   </g>
   <g id="line2d_15">
    <path d="M 243 110.25 
L 255.6 110.25 
" clip-path="url(#p47af474a25)" style="fill: none; stroke: #000000; stroke-width: 2; stroke-linecap: round"/>
   </g>
   <g id="line2d_16">
    <path d="M 297 119.25 
L 309.6 119.25 
" clip-path="url(#p47af474a25)" style="fill: none; stroke: #000000; stroke-width: 2; stroke-linecap: round"/>
   </g>
   <g id="line2d_17">
    <path d="M 207 103.5 
L 208.153264 103.463017 
L 209.301789 103.35222 
L 210.440855 103.168065 
L 211.565783 102.911308 
L 212.671948 102.583003 
L 213.754806 102.184502 
L 214.809907 101.71744 
L 215.832916 101.183737 
L 216.819628 100.585586 
L 217.76599 99.925445 
L 218.668111 99.206027 
L 219.522286 98.430288 
L 220.325004 97.601416 
L 221.072967 96.722816 
L 221.763101 95.7981 
L 222.39257 94.831066 
L 222.958788 93.825689 
L 223.459427 92.7861 
L 223.892432 91.716571 
L 224.256021 90.621497 
L 224.548702 89.505377 
L 224.769272 88.372798 
L 224.916824 87.228414 
L 224.990752 86.076928 
L 224.990752 84.923072 
L 224.916824 83.771586 
L 224.769272 82.627202 
L 224.548702 81.494623 
L 224.256021 80.378503 
L 223.892432 79.283429 
L 223.459427 78.2139 
L 222.958788 77.174311 
L 222.39257 76.168934 
L 221.763101 75.2019 
L 221.072967 74.277184 
L 220.325004 73.398584 
L 219.522286 72.569712 
L 218.668111 71.793973 
L 217.76599 71.074555 
L 216.819628 70.414414 
L 215.832916 69.816263 
L 214.809907 69.28256 
L 213.754806 68.815498 
L 212.671948 68.416997 
L 211.565783 68.088692 
L 210.440855 67.831935 
L 209.301789 67.64778 
L 208.153264 67.536983 
L 207 67.5 
L 207 67.5 
L 183.6 67.5 
L 183.6 85.5 
L 183.6 103.5 
L 207 103.5 
" clip-path="url(#p47af474a25)" style="fill: none; stroke: #000000; stroke-width: 2; stroke-linecap: round"/>
   </g>
   <g id="line2d_18">
    <path d="M 171 94.5 
L 183.6 94.5 
" clip-path="url(#p47af474a25)" style="fill: none; stroke: #000000; stroke-width: 2; stroke-linecap: round"/>
   </g>
   <g id="line2d_19">
    <path d="M 171 76.5 
L 183.6 76.5 
" clip-path="url(#p47af474a25)" style="fill: none; stroke: #000000; stroke-width: 2; stroke-linecap: round"/>
   </g>
   <g id="line2d_20">
    <path d="M 225 85.5 
L 237.6 85.5 
" clip-path="url(#p47af474a25)" style="fill: none; stroke: #000000; stroke-width: 2; stroke-linecap: round"/>
   </g>
   <g id="line2d_21">
    <path d="M 93.6 72 
L 113.58 72 
M 145.62 72 
L 165.6 72 
" clip-path="url(#p47af474a25)" style="fill: none; stroke: #000000; stroke-width: 2; stroke-linecap: round"/>
   </g>
   <g id="line2d_22">
    <path d="M 113.58 54 
L 136.98 72 
L 113.58 90 
L 113.58 54 
" clip-path="url(#p47af474a25)" style="fill: none; stroke: #000000; stroke-width: 2; stroke-linecap: round"/>
   </g>
   <g id="line2d_23">
    <path d="M 171 76.5 
L 165.6 76.5 
L 165.6 72 
" clip-path="url(#p47af474a25)" style="fill: none; stroke: #000000; stroke-width: 2; stroke-linecap: round"/>
   </g>
   <g id="line2d_24">
    <path d="M 243 110.25 
L 237.6 110.25 
L 237.6 85.5 
" clip-path="url(#p47af474a25)" style="fill: none; stroke: #000000; stroke-width: 2; stroke-linecap: round"/>
   </g>
   <g id="line2d_25">
    <path d="M 181.8 170.64 
L 201.342857 170.573878 
L 203.4 170.28 
L 205.457143 169.75102 
L 207.514286 168.986939 
L 209.571429 167.987755 
L 211.628571 166.753469 
L 213.685714 165.284082 
L 215.742857 163.579592 
L 218.314286 161.118367 
L 220.885714 158.289796 
L 223.457143 155.093878 
L 225 153 
L 225 153 
L 222.428571 149.583673 
L 219.857143 146.534694 
L 217.285714 143.853061 
L 214.714286 141.538776 
L 212.657143 139.951837 
L 210.6 138.6 
L 208.542857 137.483265 
L 206.485714 136.601633 
L 204.428571 135.955102 
L 202.371429 135.543673 
L 200.314286 135.367347 
L 199.8 135.36 
L 181.8 135.36 
L 181.8 135.36 
L 183.7872 137.52 
L 185.5152 139.68 
L 186.984 141.84 
L 188.1936 144 
L 189.144 146.16 
L 189.8352 148.32 
L 190.2672 150.48 
L 190.44 152.64 
L 190.3536 154.8 
L 190.008 156.96 
L 189.4032 159.12 
L 188.5392 161.28 
L 187.416 163.44 
L 186.0336 165.6 
L 184.392 167.76 
L 182.4912 169.92 
L 181.8 170.64 
L 181.8 170.64 
" clip-path="url(#p47af474a25)" style="fill: none; stroke: #000000; stroke-width: 2; stroke-linecap: round"/>
   </g>
   <g id="line2d_26">
    <path d="M 169.2 162 
L 188.1936 162 
" clip-path="url(#p47af474a25)" style="fill: none; stroke: #000000; stroke-width: 2; stroke-linecap: round"/>
   </g>
   <g id="line2d_27">
    <path d="M 169.2 144 
L 188.1936 144 
" clip-path="url(#p47af474a25)" style="fill: none; stroke: #000000; stroke-width: 2; stroke-linecap: round"/>
   </g>
   <g id="line2d_28">
    <path d="M 225 153 
L 237.6 153 
" clip-path="url(#p47af474a25)" style="fill: none; stroke: #000000; stroke-width: 2; stroke-linecap: round"/>
   </g>
   <g id="line2d_29">
    <path d="M 135 144 
L 136.153264 143.963017 
L 137.301789 143.85222 
L 138.440855 143.668065 
L 139.565783 143.411308 
L 140.671948 143.083003 
L 141.754806 142.684502 
L 142.809907 142.21744 
L 143.832916 141.683737 
L 144.819628 141.085586 
L 145.76599 140.425445 
L 146.668111 139.706027 
L 147.522286 138.930288 
L 148.325004 138.101416 
L 149.072967 137.222816 
L 149.763101 136.2981 
L 150.39257 135.331066 
L 150.958788 134.325689 
L 151.459427 133.2861 
L 151.892432 132.216571 
L 152.256021 131.121497 
L 152.548702 130.005377 
L 152.769272 128.872798 
L 152.916824 127.728414 
L 152.990752 126.576928 
L 152.990752 125.423072 
L 152.916824 124.271586 
L 152.769272 123.127202 
L 152.548702 121.994623 
L 152.256021 120.878503 
L 151.892432 119.783429 
L 151.459427 118.7139 
L 150.958788 117.674311 
L 150.39257 116.668934 
L 149.763101 115.7019 
L 149.072967 114.777184 
L 148.325004 113.898584 
L 147.522286 113.069712 
L 146.668111 112.293973 
L 145.76599 111.574555 
L 144.819628 110.914414 
L 143.832916 110.316263 
L 142.809907 109.78256 
L 141.754806 109.315498 
L 140.671948 108.916997 
L 139.565783 108.588692 
L 138.440855 108.331935 
L 137.301789 108.14778 
L 136.153264 108.036983 
L 135 108 
L 135 108 
L 111.6 108 
L 111.6 126 
L 111.6 144 
L 135 144 
" clip-path="url(#p47af474a25)" style="fill: none; stroke: #000000; stroke-width: 2; stroke-linecap: round"/>
   </g>
   <g id="line2d_30">
    <path d="M 99 135 
L 111.6 135 
" clip-path="url(#p47af474a25)" style="fill: none; stroke: #000000; stroke-width: 2; stroke-linecap: round"/>
   </g>
   <g id="line2d_31">
    <path d="M 99 117 
L 111.6 117 
" clip-path="url(#p47af474a25)" style="fill: none; stroke: #000000; stroke-width: 2; stroke-linecap: round"/>
   </g>
   <g id="line2d_32">
    <path d="M 153 126 
L 165.6 126 
" clip-path="url(#p47af474a25)" style="fill: none; stroke: #000000; stroke-width: 2; stroke-linecap: round"/>
   </g>
   <g id="line2d_33">
    <path d="M 169.2 144 
L 165.6 144 
L 165.6 126 
" clip-path="url(#p47af474a25)" style="fill: none; stroke: #000000; stroke-width: 2; stroke-linecap: round"/>
   </g>
   <g id="line2d_34">
    <path d="M 135 198 
L 136.153264 197.963017 
L 137.301789 197.85222 
L 138.440855 197.668065 
L 139.565783 197.411308 
L 140.671948 197.083003 
L 141.754806 196.684502 
L 142.809907 196.21744 
L 143.832916 195.683737 
L 144.819628 195.085586 
L 145.76599 194.425445 
L 146.668111 193.706027 
L 147.522286 192.930288 
L 148.325004 192.101416 
L 149.072967 191.222816 
L 149.763101 190.2981 
L 150.39257 189.331066 
L 150.958788 188.325689 
L 151.459427 187.2861 
L 151.892432 186.216571 
L 152.256021 185.121497 
L 152.548702 184.005377 
L 152.769272 182.872798 
L 152.916824 181.728414 
L 152.990752 180.576928 
L 152.990752 179.423072 
L 152.916824 178.271586 
L 152.769272 177.127202 
L 152.548702 175.994623 
L 152.256021 174.878503 
L 151.892432 173.783429 
L 151.459427 172.7139 
L 150.958788 171.674311 
L 150.39257 170.668934 
L 149.763101 169.7019 
L 149.072967 168.777184 
L 148.325004 167.898584 
L 147.522286 167.069712 
L 146.668111 166.293973 
L 145.76599 165.574555 
L 144.819628 164.914414 
L 143.832916 164.316263 
L 142.809907 163.78256 
L 141.754806 163.315498 
L 140.671948 162.916997 
L 139.565783 162.588692 
L 138.440855 162.331935 
L 137.301789 162.14778 
L 136.153264 162.036983 
L 135 162 
L 135 162 
L 111.6 162 
L 111.6 180 
L 111.6 198 
L 135 198 
" clip-path="url(#p47af474a25)" style="fill: none; stroke: #000000; stroke-width: 2; stroke-linecap: round"/>
   </g>
   <g id="line2d_35">
    <path d="M 99 189 
L 111.6 189 
" clip-path="url(#p47af474a25)" style="fill: none; stroke: #000000; stroke-width: 2; stroke-linecap: round"/>
   </g>
   <g id="line2d_36">
    <path d="M 99 171 
L 111.6 171 
" clip-path="url(#p47af474a25)" style="fill: none; stroke: #000000; stroke-width: 2; stroke-linecap: round"/>
   </g>
   <g id="line2d_37">
    <path d="M 153 180 
L 165.6 180 
" clip-path="url(#p47af474a25)" style="fill: none; stroke: #000000; stroke-width: 2; stroke-linecap: round"/>
   </g>
   <g id="line2d_38">
    <path d="M 21.6 193.5 
L 41.58 193.5 
M 73.62 193.5 
L 93.6 193.5 
" clip-path="url(#p47af474a25)" style="fill: none; stroke: #000000; stroke-width: 2; stroke-linecap: round"/>
   </g>
   <g id="line2d_39">
    <path d="M 41.58 175.5 
L 64.98 193.5 
L 41.58 211.5 
L 41.58 175.5 
" clip-path="url(#p47af474a25)" style="fill: none; stroke: #000000; stroke-width: 2; stroke-linecap: round"/>
   </g>
   <g id="line2d_40">
    <path d="M 99 189 
L 93.6 189 
L 93.6 193.5 
" clip-path="url(#p47af474a25)" style="fill: none; stroke: #000000; stroke-width: 2; stroke-linecap: round"/>
   </g>
   <g id="line2d_41">
    <path d="M 169.2 162 
L 165.6 162 
L 165.6 180 
" clip-path="url(#p47af474a25)" style="fill: none; stroke: #000000; stroke-width: 2; stroke-linecap: round"/>
   </g>
   <g id="line2d_42">
    <path d="M 243 128.25 
L 237.6 128.25 
L 237.6 153 
" clip-path="url(#p47af474a25)" style="fill: none; stroke: #000000; stroke-width: 2; stroke-linecap: round"/>
   </g>
   <g id="line2d_43">
    <path d="M 313.2 84.375 
L 309.6 84.375 
L 309.6 119.25 
" clip-path="url(#p47af474a25)" style="fill: none; stroke: #000000; stroke-width: 2; stroke-linecap: round"/>
   </g>
   <g id="text_1">
    <!-- A -->
    <g transform="translate(230.849219 25.949219) scale(0.125 -0.125)">
     <defs>
      <path id="DejaVuSans-41" d="M 2188 4044 
L 1331 1722 
L 3047 1722 
L 2188 4044 
z
M 1831 4666 
L 2547 4666 
L 4325 0 
L 3669 0 
L 3244 1197 
L 1141 1197 
L 716 0 
L 50 0 
L 1831 4666 
z
" transform="scale(0.015625)"/>
     </defs>
     <use xlink:href="#DejaVuSans-41"/>
    </g>
   </g>
   <g id="text_2">
    <!-- B -->
    <g transform="translate(153.423828 48.449219) scale(0.125 -0.125)">
     <defs>
      <path id="DejaVuSans-42" d="M 1259 2228 
L 1259 519 
L 2272 519 
Q 2781 519 3026 730 
Q 3272 941 3272 1375 
Q 3272 1813 3026 2020 
Q 2781 2228 2272 2228 
L 1259 2228 
z
M 1259 4147 
L 1259 2741 
L 2194 2741 
Q 2656 2741 2882 2914 
Q 3109 3088 3109 3444 
Q 3109 3797 2882 3972 
Q 2656 4147 2194 4147 
L 1259 4147 
z
M 628 4666 
L 2241 4666 
Q 2963 4666 3353 4366 
Q 3744 4066 3744 3513 
Q 3744 3084 3544 2831 
Q 3344 2578 2956 2516 
Q 3422 2416 3680 2098 
Q 3938 1781 3938 1306 
Q 3938 681 3513 340 
Q 3088 0 2303 0 
L 628 0 
L 628 4666 
z
" transform="scale(0.015625)"/>
     </defs>
     <use xlink:href="#DejaVuSans-42"/>
    </g>
   </g>
   <g id="text_3">
    <!-- C -->
    <g transform="translate(158.671484 97.949219) scale(0.125 -0.125)">
     <defs>
      <path id="DejaVuSans-43" d="M 4122 4306 
L 4122 3641 
Q 3803 3938 3442 4084 
Q 3081 4231 2675 4231 
Q 1875 4231 1450 3742 
Q 1025 3253 1025 2328 
Q 1025 1406 1450 917 
Q 1875 428 2675 428 
Q 3081 428 3442 575 
Q 3803 722 4122 1019 
L 4122 359 
Q 3791 134 3420 21 
Q 3050 -91 2638 -91 
Q 1578 -91 968 557 
Q 359 1206 359 2328 
Q 359 3453 968 4101 
Q 1578 4750 2638 4750 
Q 3056 4750 3426 4639 
Q 3797 4528 4122 4306 
z
" transform="scale(0.015625)"/>
     </defs>
     <use xlink:href="#DejaVuSans-43"/>
    </g>
   </g>
   <g id="text_4">
    <!-- B -->
    <g transform="translate(81.423828 75.449219) scale(0.125 -0.125)">
     <use xlink:href="#DejaVuSans-42"/>
    </g>
   </g>
   <g id="text_5">
    <!-- B -->
    <g transform="translate(86.823828 120.449219) scale(0.125 -0.125)">
     <use xlink:href="#DejaVuSans-42"/>
    </g>
   </g>
   <g id="text_6">
    <!-- D -->
    <g transform="translate(85.775 138.449219) scale(0.125 -0.125)">
     <defs>
      <path id="DejaVuSans-44" d="M 1259 4147 
L 1259 519 
L 2022 519 
Q 2988 519 3436 956 
Q 3884 1394 3884 2338 
Q 3884 3275 3436 3711 
Q 2988 4147 2022 4147 
L 1259 4147 
z
M 628 4666 
L 1925 4666 
Q 3281 4666 3915 4102 
Q 4550 3538 4550 2338 
Q 4550 1131 3912 565 
Q 3275 0 1925 0 
L 628 0 
L 628 4666 
z
" transform="scale(0.015625)"/>
     </defs>
     <use xlink:href="#DejaVuSans-44"/>
    </g>
   </g>
   <g id="text_7">
    <!-- C -->
    <g transform="translate(86.671484 174.449219) scale(0.125 -0.125)">
     <use xlink:href="#DejaVuSans-43"/>
    </g>
   </g>
   <g id="text_8">
    <!-- D -->
    <g transform="translate(8.375 196.949219) scale(0.125 -0.125)">
     <use xlink:href="#DejaVuSans-44"/>
    </g>
   </g>
  </g>
 </g>
 <defs>
  <clipPath id="p47af474a25">
   <rect x="3.6" y="3.6" width="396" height="217.8"/>
  </clipPath>
 </defs>
</svg>
